<?xml version="1.0" encoding="UTF-8"?>
<svg width="24px" height="17px" viewBox="0 0 24 17" version="1.1" xmlns="http://www.w3.org/2000/svg" xmlns:xlink="http://www.w3.org/1999/xlink">
    <title>837EC401-913A-4F0B-B009-F0EE647A8346</title>
    <g id="Web" stroke="none" stroke-width="1" fill="none" fill-rule="evenodd">
        <g id="W-Landing" transform="translate(-316.000000, -408.000000)" fill="#146EB4" fill-rule="nonzero" stroke="#146EB4" stroke-width="0.3">
            <g id="Group-8" transform="translate(162.000000, 130.000000)">
                <g id="Group" transform="translate(0.000000, 274.000000)">
                    <g id="Group-5" transform="translate(166.000000, 12.500000) rotate(-180.000000) translate(-166.000000, -12.500000) translate(154.000000, 4.000000)">
                        <path d="M9.18781494,0.437136971 C9.50025323,0.742632185 9.52948246,1.2285325 9.2718269,1.56769834 L9.20143412,1.64924351 L3.46071429,7.52085663 L22.8059911,7.52142857 C23.3612789,7.52142857 23.8114286,7.9051845 23.8114286,8.37857143 C23.8114286,8.818145 23.4232893,9.18043471 22.9232464,9.22994766 L22.8059911,9.23571429 L3.46071429,9.23485663 L9.20143412,15.107899 C9.53238727,15.4463738 9.52628975,15.9890524 9.18781494,16.3200055 C8.87537666,16.6255008 8.38894225,16.6438049 8.05565133,16.3785936 L7.9757084,16.3063864 L0.809994114,8.97781494 C0.676342795,8.84112609 0.597534306,8.67090246 0.573568646,8.49466554 C0.572975444,8.48281438 0.571371246,8.47083864 0.57005954,8.45879058 C0.567604947,8.4389582 0.566448707,8.41925496 0.565969092,8.39953836 C0.565815569,8.39275287 0.565714286,8.38567223 0.565714286,8.37857143 L0.566135607,8.35161497 C0.566837123,8.32918835 0.568414322,8.30678398 0.570867204,8.28445737 L0.565714286,8.37857143 C0.565714286,8.34123585 0.568514364,8.30445781 0.57394526,8.2683816 C0.591538487,8.12305633 0.647477235,7.98168187 0.740612813,7.85955299 L0.809994114,7.77932757 L7.9757084,0.450756146 C8.30666155,0.112281335 8.84934013,0.106183823 9.18781494,0.437136971 Z" id="Combined-Shape"></path>
                    </g>
                </g>
            </g>
        </g>
    </g>
</svg>