<?xml version="1.0" encoding="UTF-8"?>
<svg width="18px" height="18px" viewBox="0 0 18 18" version="1.1" xmlns="http://www.w3.org/2000/svg" xmlns:xlink="http://www.w3.org/1999/xlink">
    <title>C05140D9-04C7-4602-A035-9A7DF5FEA531</title>
    <g id="Web" stroke="none" stroke-width="1" fill="none" fill-rule="evenodd">
        <g id="home" transform="translate(-244.000000, -2058.000000)" fill="#4D4D4D" fill-rule="nonzero">
            <g id="Group-13" transform="translate(91.000000, 2052.000000)">
                <g id="Group-6" transform="translate(14.000000, 5.000000)">
                    <g id="assets/icons/global/arrow" transform="translate(148.000000, 10.000000) rotate(-90.000000) translate(-148.000000, -10.000000) translate(139.000000, 1.000000)">
                        <path d="M3.90337865,6.15337865 C4.20292854,5.85382877 4.67167518,5.82659696 5.00198811,6.07168323 L5.09662135,6.15337865 L9,10.056375 L12.9033787,6.15337865 C13.2029285,5.85382877 13.6716752,5.82659696 14.0019881,6.07168323 L14.0966213,6.15337865 C14.3961712,6.45292854 14.423403,6.92167518 14.1783168,7.25198811 L14.0966213,7.34662135 L9.59662135,11.8466213 C9.29707146,12.1461712 8.82832482,12.173403 8.49801189,11.9283168 L8.40337865,11.8466213 L3.90337865,7.34662135 C3.57387378,7.01711648 3.57387378,6.48288352 3.90337865,6.15337865 Z" id="Path-2-Copy" transform="translate(9.000000, 9.000000) rotate(-360.000000) translate(-9.000000, -9.000000) "></path>
                    </g>
                </g>
            </g>
        </g>
    </g>
</svg>