<?xml version="1.0" encoding="UTF-8"?>
<svg width="28px" height="28px" viewBox="0 0 28 28" version="1.1" xmlns="http://www.w3.org/2000/svg" xmlns:xlink="http://www.w3.org/1999/xlink">
    <title>09B35AF6-ABFC-4D15-8D04-D6B579F9B383</title>
    <g id="Web" stroke="none" stroke-width="1" fill="none" fill-rule="evenodd">
        <g id="W-Landing" transform="translate(-1089.000000, -74.000000)" fill="#4D4D4D" fill-rule="nonzero">
            <g id="navicons/bag/inactive" transform="translate(1089.000000, 74.000000)">
                <path d="M20.4516129,2.33333333 C20.7392943,2.33333333 21.0101869,2.46877961 21.1827957,2.69892473 L21.1827957,2.69892473 L24.4086022,7 C24.411958,7.00447452 24.4152703,7.00897641 24.4185388,7.01350501 C24.4340032,7.03473754 24.4489686,7.05744897 24.4629191,7.08083591 C24.4708378,7.09442792 24.4782983,7.10772437 24.4854152,7.12118512 C24.4961999,7.14113606 24.506225,7.1618985 24.5154707,7.18307918 C24.5198368,7.19366864 24.5242752,7.20439993 24.5285067,7.21520929 C24.5393229,7.24217794 24.5485581,7.26951309 24.556503,7.29739204 C24.5586812,7.30586577 24.5610398,7.3146051 24.5632687,7.32337983 C24.5693389,7.34649033 24.574269,7.36974985 24.5782968,7.39331725 C24.5869157,7.44420622 24.5913978,7.49611027 24.5913978,7.5483871 L24.5913978,7.5483871 L24.5913978,22.6021505 C24.5913978,24.2946361 23.2193672,25.6666667 21.5268817,25.6666667 L21.5268817,25.6666667 L6.47311828,25.6666667 C4.78063276,25.6666667 3.40860215,24.2946361 3.40860215,22.6021505 L3.40860215,22.6021505 L3.40860215,7.5483871 C3.40860215,7.49851776 3.41268099,7.44898765 3.42068428,7.40025994 C3.43762692,7.29552803 3.47244702,7.19688684 3.52182942,7.10740696 C3.54247276,7.07026648 3.56565203,7.03432776 3.59139785,7 L3.54116822,7.07405082 C3.55443451,7.05224294 3.56858802,7.03103428 3.58357862,7.01047497 L3.59139785,7 L6.8172043,2.69892473 C6.98981314,2.46877961 7.26070569,2.33333333 7.5483871,2.33333333 L7.5483871,2.33333333 Z M22.7626022,8.46233333 L5.23560215,8.46233333 L5.23655914,22.6021505 C5.23655914,23.1970608 5.65666998,23.693849 6.21640373,23.8120271 L6.33838154,23.8314537 L6.47311828,23.8387097 L21.5268817,23.8387097 C22.2098145,23.8387097 22.7634409,23.2850833 22.7634409,22.6021505 L22.7634409,22.6021505 L22.7626022,8.46233333 Z M18.3010753,10.9354839 C18.8058517,10.9354839 19.2150538,11.344686 19.2150538,11.8494624 C19.2150538,14.729657 16.8801947,17.0645161 14,17.0645161 C11.1198053,17.0645161 8.78494624,14.729657 8.78494624,11.8494624 C8.78494624,11.344686 9.19414835,10.9354839 9.69892473,10.9354839 C10.2037011,10.9354839 10.6129032,11.344686 10.6129032,11.8494624 C10.6129032,13.7201043 12.1293581,15.2365591 14,15.2365591 C15.8706419,15.2365591 17.3870968,13.7201043 17.3870968,11.8494624 C17.3870968,11.344686 17.7962989,10.9354839 18.3010753,10.9354839 Z M19.9946237,4.16129032 L8.00430108,4.16129032 L6.14860215,6.63433333 L21.8496022,6.63433333 L19.9946237,4.16129032 Z" id="Combined-Shape"></path>
            </g>
        </g>
    </g>
</svg>