<?xml version="1.0" encoding="UTF-8"?>
<svg width="88px" height="26px" viewBox="0 0 88 26" version="1.1" xmlns="http://www.w3.org/2000/svg" xmlns:xlink="http://www.w3.org/1999/xlink">
    <title>2FBACE25-4768-4482-90D8-F1ABBC795B1D</title>
    <g id="Web" stroke="none" stroke-width="1" fill="none" fill-rule="evenodd">
        <g id="W-Landing" transform="translate(-299.000000, -10.000000)" fill="#FFFFFF" fill-rule="nonzero">
            <g id="Group-23" transform="translate(162.000000, 10.000000)">
                <g id="logo" transform="translate(137.000000, 0.000000)">
                    <path d="M39.9044983,6.32564706 L39.9044983,18.0470588 C39.9182073,18.1637655 39.8781623,18.2803787 39.7957387,18.3637727 C39.7133151,18.4471666 39.5975196,18.4882285 39.4812457,18.4752941 L38.022699,18.4752941 C37.9062096,18.4880347 37.7902522,18.4470297 37.707395,18.3637959 C37.6245379,18.2805621 37.5837184,18.1640777 37.5964014,18.0470588 L37.5964014,17.4352941 C36.956955,18.2489412 35.9977855,18.7383529 34.6914879,18.7383529 C32.3011765,18.7383529 30.3280277,16.6767059 30.3280277,14.0002353 C30.3280277,11.3237647 32.3011765,9.26211765 34.6914879,9.26211765 C35.9977855,9.26211765 36.956955,9.75152941 37.5964014,10.5651765 L37.5964014,6.32564706 C37.5837184,6.20862823 37.6245379,6.09214374 37.707395,6.00890994 C37.7902522,5.92567614 37.9062096,5.88467114 38.022699,5.89741176 L39.4812457,5.89741176 C39.5975196,5.88447736 39.7133151,5.92553926 39.7957387,6.0089332 C39.8781623,6.09232714 39.9182073,6.20894037 39.9044983,6.32564706 L39.9044983,6.32564706 Z M37.5964014,13.9910588 C37.6281796,13.0801435 37.1625412,12.2244226 36.3821037,11.7594995 C35.6016663,11.2945763 34.6308597,11.2945763 33.8504222,11.7594995 C33.0699848,12.2244226 32.6043464,13.0801435 32.6361246,13.9910588 C32.6043464,14.9019742 33.0699848,15.757695 33.8504222,16.2226182 C34.6308597,16.6875413 35.6016663,16.6875413 36.3821037,16.2226182 C37.1625412,15.757695 37.6281796,14.9019742 37.5964014,13.9910588 L37.5964014,13.9910588 Z" id="Shape"></path>
                    <path d="M48.2903806,9.48235294 C48.4066545,9.46941853 48.52245,9.51048044 48.6048737,9.59387438 C48.6872973,9.67726832 48.7273423,9.79388154 48.7136332,9.91058824 L48.7136332,18.0470588 C48.7273423,18.1637655 48.6872973,18.2803787 48.6048737,18.3637727 C48.52245,18.4471666 48.4066545,18.4882285 48.2903806,18.4752941 L46.8287889,18.4752941 C46.712515,18.4882285 46.5967195,18.4471666 46.5142959,18.3637727 C46.4318723,18.2803787 46.3918273,18.1637655 46.4055363,18.0470588 L46.4055363,17.5637647 C45.9031142,18.3254118 45.0809689,18.7291765 43.9695502,18.7291765 C42.3039446,18.7291765 41.0585467,17.4444706 41.0585467,15.2421176 L41.0585467,9.92282353 C41.0458637,9.8058047 41.0866832,9.68932021 41.1695404,9.60608641 C41.2523976,9.52285261 41.368355,9.48184761 41.4848443,9.49458824 L42.9342561,9.49458824 C43.0507454,9.48184761 43.1667028,9.52285261 43.24956,9.60608641 C43.3324171,9.68932021 43.3732366,9.8058047 43.3605536,9.92282353 L43.3605536,15.0647059 C43.3605536,16.0955294 43.9695502,16.5941176 44.7795156,16.5941176 C45.6930104,16.5941176 46.3964014,16.068 46.3964014,14.7129412 L46.3964014,9.92282353 C46.3826923,9.80611684 46.4227373,9.68950361 46.5051609,9.60610967 C46.5875846,9.52271573 46.7033801,9.48165383 46.819654,9.49458824 L48.2812457,9.49458824 L48.2903806,9.48235294 Z" id="Path"></path>
                    <path d="M57.550173,18.4875294 L55.8480277,18.4875294 C55.6438768,18.4971742 55.4496686,18.3984674 55.3364706,18.2275294 L52.3980623,14.4254118 L52.3980623,18.0470588 C52.4107453,18.1640777 52.3699258,18.2805621 52.2870686,18.3637959 C52.2042114,18.4470297 52.088254,18.4880347 51.9717647,18.4752941 L50.513218,18.4752941 C50.3967287,18.4880347 50.2807713,18.4470297 50.1979141,18.3637959 C50.1150569,18.2805621 50.0742374,18.1640777 50.0869204,18.0470588 L50.0869204,6.32564706 C50.0742374,6.20862823 50.1150569,6.09214374 50.1979141,6.00890994 C50.2807713,5.92567614 50.3967287,5.88467114 50.513218,5.89741176 L51.9717647,5.89741176 C52.088254,5.88467114 52.2042114,5.92567614 52.2870686,6.00890994 C52.3699258,6.09214374 52.4107453,6.20862823 52.3980623,6.32564706 L52.3980623,13.4588235 L55.1598616,9.76376471 C55.2720752,9.59331929 55.4651547,9.49459862 55.6683737,9.50376471 L57.382699,9.50376471 C57.732872,9.50376471 57.8485813,9.73317647 57.6384775,10.0207059 L54.6208997,13.9543529 L57.7937716,17.9797647 C58.0251903,18.2550588 57.906436,18.4875294 57.550173,18.4875294 L57.550173,18.4875294 Z" id="Path"></path>
                    <path d="M62.312526,9.25294118 C64.2887197,9.25294118 65.9665052,10.4336471 65.9665052,12.7767059 L65.9665052,18.0470588 C65.9802142,18.1637655 65.9401692,18.2803787 65.8577456,18.3637727 C65.775322,18.4471666 65.6595265,18.4882285 65.5432526,18.4752941 L64.1364706,18.4752941 C64.0199813,18.4880347 63.9040238,18.4470297 63.8211667,18.3637959 C63.7383095,18.2805621 63.69749,18.1640777 63.710173,18.0470588 L63.710173,17.7105882 C63.1955709,18.3407059 62.4191003,18.7291765 61.2741869,18.7291765 C59.6816609,18.7291765 58.259654,17.7901176 58.259654,15.9028235 C58.259654,14.0155294 59.6816609,13.0734118 61.2741869,13.0734118 C62.1569174,13.0247571 63.0258425,13.3095325 63.710173,13.8717647 L63.710173,12.9112941 C63.710173,11.8468235 63.1742561,11.4002353 62.3247059,11.4002353 C61.6487197,11.4002353 61.1493426,11.6847059 60.9970934,12.1710588 C60.9057439,12.4127059 60.8113495,12.5534118 60.5555709,12.5534118 L59.1213841,12.5534118 C59.0014632,12.5676014 58.8818894,12.524251 58.7986286,12.4363996 C58.7153677,12.3485483 58.6781358,12.2264476 58.6981315,12.1068235 C58.9204152,10.2715294 60.4885813,9.25294118 62.3247059,9.25294118 L62.312526,9.25294118 Z M63.6979931,15.9058824 C63.6979931,15.2115294 63.0707266,14.7863529 62.0567474,14.7863529 C61.0427682,14.7863529 60.5647059,15.2574118 60.5647059,15.9058824 C60.5647059,16.5543529 61.0397232,17.0254118 62.0567474,17.0254118 C63.0737716,17.0254118 63.6979931,16.5512941 63.6979931,15.9058824 Z" id="Shape"></path>
                    <path d="M71.0668512,9.25294118 C73.043045,9.25294118 74.7208304,10.4336471 74.7208304,12.7767059 L74.7208304,18.0470588 C74.7345395,18.1637655 74.6944945,18.2803787 74.6120709,18.3637727 C74.5296473,18.4471666 74.4138517,18.4882285 74.2975779,18.4752941 L72.8907958,18.4752941 C72.7743065,18.4880347 72.6583491,18.4470297 72.5754919,18.3637959 C72.4926348,18.2805621 72.4518153,18.1640777 72.4644983,18.0470588 L72.4644983,17.7105882 C71.9498962,18.3407059 71.1734256,18.7291765 70.0285121,18.7291765 C68.4329412,18.7291765 67.0109343,17.7901176 67.0109343,15.9028235 C67.0109343,14.0155294 68.4329412,13.0734118 70.0285121,13.0734118 C70.9112817,13.0244579 71.7803119,13.3092677 72.4644983,13.8717647 L72.4644983,12.9112941 C72.4644983,11.8468235 71.9285813,11.4002353 71.0790311,11.4002353 C70.403045,11.4002353 69.9036678,11.6847059 69.7514187,12.1710588 C69.6600692,12.4127059 69.5656747,12.5534118 69.3098962,12.5534118 L67.8787543,12.5534118 C67.7583387,12.568662 67.6378408,12.5257782 67.553839,12.4377782 C67.4698372,12.3497781 67.4322386,12.2270404 67.4524567,12.1068235 C67.6747405,10.2715294 69.2429066,9.25294118 71.0790311,9.25294118 L71.0668512,9.25294118 Z M72.4523183,15.9058824 C72.4523183,15.2115294 71.8280969,14.7863529 70.8110727,14.7863529 C69.7940484,14.7863529 69.3190311,15.2574118 69.3190311,15.9058824 C69.3190311,16.5543529 69.7940484,17.0254118 70.8110727,17.0254118 C71.8280969,17.0254118 72.4523183,16.5512941 72.4523183,15.9058824 Z" id="Shape"></path>
                    <path d="M80.6220069,9.25294118 C82.2876125,9.25294118 83.5299654,10.5376471 83.5299654,12.74 L83.5299654,18.0470588 C83.5436744,18.1637655 83.5036295,18.2803787 83.4212058,18.3637727 C83.3387822,18.4471666 83.2229867,18.4882285 83.1067128,18.4752941 L81.6451211,18.4752941 C81.5288472,18.4882285 81.4130517,18.4471666 81.3306281,18.3637727 C81.2482045,18.2803787 81.2081595,18.1637655 81.2218685,18.0470588 L81.2218685,12.9174118 C81.2218685,11.8865882 80.612872,11.388 79.8029066,11.388 C78.8894118,11.388 78.1860208,11.9141176 78.1860208,13.2691765 L78.1860208,18.0470588 C78.1987037,18.1640777 78.1578843,18.2805621 78.0750271,18.3637959 C77.9921699,18.4470297 77.8762125,18.4880347 77.7597232,18.4752941 L76.3011765,18.4752941 C76.1846871,18.4880347 76.0687297,18.4470297 75.9858726,18.3637959 C75.9030154,18.2805621 75.8621959,18.1640777 75.8748789,18.0470588 L75.8748789,9.92282353 C75.8621959,9.8058047 75.9030154,9.68932021 75.9858726,9.60608641 C76.0687297,9.52285261 76.1846871,9.48184761 76.3011765,9.49458824 L77.7597232,9.49458824 C77.8762125,9.48184761 77.9921699,9.52285261 78.0750271,9.60608641 C78.1578843,9.68932021 78.1987037,9.8058047 78.1860208,9.92282353 L78.1860208,10.4183529 C78.6884429,9.65670588 79.5075433,9.25294118 80.6220069,9.25294118 L80.6220069,9.25294118 Z" id="Path"></path>
                    <ellipse id="Oval" opacity="0.3" cx="12.8132872" cy="12.8715294" rx="12.8132872" ry="12.8715294"></ellipse>
                    <path d="M17.8679585,6.11764706 L7.75557093,6.11764706 C6.77177789,6.11764706 5.97425606,6.91879399 5.97425606,7.90705882 L5.97425606,17.8390588 C5.97425606,18.8273237 6.77177789,19.6284706 7.75557093,19.6284706 L17.8679585,19.6284706 C18.8517515,19.6284706 19.6492734,18.8273237 19.6492734,17.8390588 L19.6492734,7.90094118 C19.6459181,6.91506628 18.8493781,6.11764706 17.8679585,6.11764706 L17.8679585,6.11764706 Z M12.8132872,14.04 C10.3180833,14.030656 8.24577375,12.1031291 8.04484429,9.60470588 C8.00448357,9.0666506 8.40597105,8.59760305 8.9415917,8.55705886 C9.47721234,8.51651466 9.94413751,8.91982707 9.98449827,9.45788235 C10.0932604,10.9457393 11.3266522,12.0970911 12.8117647,12.0970911 C14.2968772,12.0970911 15.530269,10.9457393 15.6390311,9.45788235 C15.6631142,9.05841741 15.9268464,8.71391431 16.3049892,8.58796728 C16.6831321,8.46202025 17.0995115,8.58000034 17.3564014,8.88588235 C17.5261506,9.08232966 17.6096156,9.33937881 17.5878201,9.59858824 C17.3881015,12.1000332 15.3114053,14.0291765 12.8132872,14.0338824 L12.8132872,14.04 Z" id="Shape"></path>
                    <path d="M85.6370934,5.00423529 C84.4027275,5.00423529 83.4020761,6.00943504 83.4020761,7.24941176 C83.4020761,8.48938849 84.4027275,9.49458824 85.6370934,9.49458824 C86.8714594,9.49458824 87.8721107,8.48938849 87.8721107,7.24941176 C87.8721107,6.00943504 86.8714594,5.00423529 85.6370934,5.00423529 L85.6370934,5.00423529 Z M85.6370934,5.34988235 C86.6802236,5.35494459 87.5222385,6.2076214 87.5188929,7.25549987 C87.5155274,8.30337834 86.6680692,9.15059584 85.6249282,9.14891906 C84.5817872,9.1472373 83.7370217,8.29729566 83.7370217,7.24941176 C83.7362019,6.74377946 83.936417,6.25875274 84.2931923,5.9020788 C84.6499675,5.54540486 85.1337589,5.34661953 85.6370934,5.34988235 L85.6370934,5.34988235 Z M84.9550173,6.21247059 L84.9550173,8.28635294 L85.2991003,8.28635294 L85.2991003,7.52470588 L85.7467128,7.52470588 L86.2278201,8.28635294 L86.5719031,8.28635294 L86.072526,7.49717647 C86.1250654,7.48590549 86.1769157,7.47160736 86.2278201,7.45435294 C86.3206401,7.42499971 86.4044792,7.37236205 86.4714187,7.30141176 C86.5300488,7.24495933 86.5712731,7.17275423 86.590173,7.09341176 C86.6077743,7.02019882 86.6179759,6.94538845 86.6206228,6.87011765 C86.6167753,6.79394559 86.6065898,6.71823049 86.590173,6.64376471 C86.5688872,6.56628828 86.5279717,6.49567796 86.4714187,6.43882353 C86.4070557,6.3641251 86.322398,6.30991053 86.2278201,6.28282353 C86.1027081,6.2301367 85.967485,6.20610387 85.8319723,6.21247059 L84.9550173,6.21247059 Z M85.2991003,6.48776471 L85.7467128,6.48776471 C85.8090324,6.48430165 85.8715303,6.48944771 85.9324567,6.50305882 C85.9945464,6.50320649 86.0551073,6.52241791 86.1060208,6.55811765 C86.1536255,6.58218937 86.1952474,6.61668354 86.2278201,6.65905882 C86.2643129,6.71520174 86.2814307,6.78183474 86.2765398,6.84870588 C86.2800453,6.91737618 86.2630824,6.9855363 86.2278201,7.04447059 C86.1959445,7.09233135 86.1544565,7.13296598 86.1060208,7.16376471 L85.9324567,7.21576471 C85.8716899,7.23040563 85.8090419,7.23556405 85.7467128,7.23105882 L85.2991003,7.23105882 L85.2991003,6.48776471 Z" id="Shape"></path>
                </g>
            </g>
        </g>
    </g>
</svg>