<?xml version="1.0" encoding="UTF-8"?>
<svg width="141px" height="32px" viewBox="0 0 141 32" version="1.1" xmlns="http://www.w3.org/2000/svg" xmlns:xlink="http://www.w3.org/1999/xlink">
    <title>A01BCA91-C8D7-4A29-AC63-8EF1D1EE92CB</title>
    <g id="Web" stroke="none" stroke-width="1" fill="none" fill-rule="evenodd">
        <g id="home" transform="translate(-110.000000, -2557.000000)">
            <g id="Group-23" transform="translate(0.000000, 2294.000000)">
                <g id="Group-18" transform="translate(110.000000, 263.000000)">
                    <rect id="Rectangle" fill="#49C759" x="0" y="0" width="141" height="32" rx="3"></rect>
                    <g id="Group-8" transform="translate(12.000000, 6.000000)" fill-rule="nonzero">
                        <g id="whatsapp">
                            <path d="M0.42723651,19.5744324 L1.7789522,14.6575928 C0.945159294,13.2185364 0.50658702,11.5861511 0.507199765,9.91378785 C0.509344353,4.68200684 4.7835478,0.425567617 10.0356924,0.425567617 C12.5844056,0.426635742 14.9767157,1.41479492 16.7757353,3.20831297 C18.5746017,5.00183105 19.564951,7.38586426 19.5640325,9.92141723 C19.5617341,15.1530457 15.2869179,19.4100952 10.0356924,19.4100952 C10.035386,19.4100952 10.0358456,19.4100952 10.0356924,19.4100952 L10.0315564,19.4100952 C8.43688725,19.4094848 6.87009804,19.0110779 5.47840075,18.2550049 L0.42723651,19.5744324 Z M5.71231616,16.537323 L6.00168506,16.7080688 C7.21737133,17.4267578 8.61121325,17.8068543 10.0326287,17.8076172 L10.0356924,17.8076172 C14.4005821,17.8076172 17.9532782,14.2694092 17.955117,9.92080687 C17.9558824,7.81341555 17.1329657,5.8317566 15.6377145,4.34112547 C14.14231,2.85049437 12.1541054,2.02911375 10.0386029,2.02819824 C5.67018996,2.02819824 2.11764706,5.56594848 2.11596133,9.9143982 C2.11534925,11.4045715 2.53385416,12.8556824 3.32674631,14.1114807 L3.51516545,14.4099426 L2.71492035,17.3200989 L5.71231616,16.537323 Z" id="Shape" fill="#FFFFFF"></path>
                            <path d="M0.758578431,19.2431641 L2.06357231,14.4963074 C1.25842525,13.1071472 0.835171569,11.5310669 0.835631137,9.91683961 C0.837622549,4.86618043 4.96400122,0.757141094 10.0340074,0.757141094 C12.4947917,0.758209219 14.8043811,1.71218871 16.5407475,3.44360352 C18.2775735,5.17501832 19.2334559,7.47650148 19.2325374,9.92401125 C19.2303922,14.974823 15.1038603,19.0843201 10.0344669,19.0843201 C10.0340074,19.0843201 10.0346201,19.0843201 10.0344669,19.0843201 L10.0303309,19.0843201 C8.490962,19.0837097 6.97824753,18.698883 5.63480392,17.9695129 L0.758578431,19.2431641 Z" id="Path" fill="#49C759"></path>
                            <g id="Group" transform="translate(0.392157, 0.390625)" fill="#FFFFFF">
                                <path d="M0.0350796471,19.1838074 L1.38679533,14.2669678 C0.553002431,12.8279114 0.114430157,11.1955261 0.115042902,9.52316285 C0.11718749,4.29138184 4.39139094,0.0349426172 9.64353553,0.0349426172 C12.1922488,0.0360107422 14.5845588,1.02416992 16.3835784,2.81768797 C18.1824449,4.61120605 19.1727941,6.99523926 19.1718756,9.53079223 C19.1695772,14.7624207 14.894761,19.0194702 9.64353553,19.0194702 C9.64322918,19.0194702 9.64368871,19.0194702 9.64353553,19.0194702 L9.63939953,19.0194702 C8.04473039,19.0188598 6.47794118,18.6204529 5.08624388,17.8643799 L0.0350796471,19.1838074 Z M5.32015929,16.146698 L5.6095282,16.3174438 C6.82521447,17.0361328 8.21905639,17.4162293 9.6404718,17.4169922 L9.64353553,17.4169922 C14.0084253,17.4169922 17.5611213,13.8787842 17.5629601,9.53018188 C17.5637255,7.42279055 16.7408088,5.4411316 15.2455576,3.95050047 C13.7501532,2.45986938 11.7619485,1.63848875 9.64644608,1.63757324 C5.2780331,1.63757324 1.7254902,5.17532348 1.72380447,9.5237732 C1.72319239,11.0139465 2.14169729,12.4650574 2.93458945,13.7208557 L3.12300859,14.0193176 L2.32276349,16.9294739 L5.32015929,16.146698 Z" id="Shape"></path>
                                <path d="M7.26210173,5.55648805 C7.0837929,5.16159059 6.89598651,5.15365602 6.72625612,5.14678953 C6.58746937,5.14083863 6.42861522,5.14114115 6.27006741,5.14114115 C6.11136643,5.14114115 5.85340075,5.20065309 5.63526349,5.43792727 C5.41697302,5.67520141 4.80177694,6.24893187 4.80177694,7.41577148 C4.80177694,8.58276367 5.65502451,9.71023559 5.77405024,9.86862184 C5.893076,10.0268555 7.42110906,12.4978637 9.84099263,13.4484863 C11.8521753,14.2385864 12.2613358,14.0814209 12.6979167,14.0419006 C13.1344976,14.0023804 14.1064645,13.4681702 14.3048407,12.9144287 C14.5033701,12.3606873 14.5033701,11.8861389 14.4437806,11.7868042 C14.3841912,11.6880798 14.2254902,11.6287231 13.9874387,11.5101623 C13.7493873,11.3916016 12.5788909,10.8177185 12.3606005,10.738678 C12.14231,10.6594848 11.9836091,10.6201172 11.8249081,10.8575439 C11.6660539,11.0946655 11.2101716,11.6287231 11.0712316,11.7868042 C10.9322917,11.945343 10.7933517,11.9651795 10.5553002,11.8464661 C10.3172488,11.7276001 9.55039827,11.4773559 8.6407782,10.6694031 C7.93305761,10.0408936 7.45511643,9.26452637 7.31617647,9.02709961 C7.17738973,8.78997805 7.31387867,8.67279055 7.42080271,8.5432434 C7.61335784,8.30993652 7.93642769,7.89047242 8.0157782,7.73239137 C8.09512867,7.57400512 8.05545341,7.43560789 7.99601718,7.31689453 C7.93642769,7.19833375 7.47365196,6.0255432 7.26210173,5.55648805 Z" id="Path"></path>
                            </g>
                        </g>
                        <path d="M31.558,15.196 C33.77,15.196 35.59,13.922 36.108,11.724 L34.652,11.416 C34.232,12.998 33.028,13.782 31.558,13.782 C29.668,13.782 28.184,12.284 28.184,10.31 C28.184,8.336 29.668,6.838 31.558,6.838 C33.028,6.838 34.232,7.622 34.652,9.204 L36.108,8.784 C35.576,6.712 33.77,5.424 31.558,5.424 C28.828,5.424 26.672,7.58 26.672,10.31 C26.672,13.054 28.828,15.196 31.558,15.196 Z M39.342,15 L39.342,11.794 C39.342,10.044 40.168,9.204 41.414,9.204 C42.408,9.204 43.066,9.96 43.066,11.094 L43.066,15 L44.536,15 L44.536,10.8 C44.536,9.064 43.416,7.86 41.75,7.86 C40.714,7.86 39.902,8.238 39.342,8.91 L39.342,4.92 L37.886,4.92 L37.886,15 L39.342,15 Z M49.394,15.196 C50.444,15.196 51.312,14.832 51.914,14.202 L51.914,15 L53.37,15 L53.37,8.056 L51.914,8.056 L51.914,8.854 C51.312,8.224 50.444,7.86 49.394,7.86 C47.574,7.86 45.95,9.344 45.95,11.528 C45.95,13.726 47.574,15.196 49.394,15.196 Z M49.632,13.908 C48.358,13.908 47.364,12.998 47.364,11.528 C47.364,10.072 48.358,9.148 49.632,9.148 C50.78,9.148 51.914,10.072 51.914,11.528 C51.914,12.998 50.78,13.908 49.632,13.908 Z M58.48,15.196 C59.068,15.196 59.544,15.056 60.202,14.664 L59.754,13.446 C59.39,13.684 58.942,13.824 58.578,13.824 C57.892,13.824 57.43,13.404 57.43,12.536 L57.43,9.26 L59.81,9.26 L59.81,8.056 L57.43,8.056 L57.43,5.9 L55.974,5.9 L55.974,8.056 L54.476,8.056 L54.476,9.26 L55.974,9.26 L55.974,12.634 C55.974,14.356 56.982,15.196 58.48,15.196 Z M68.322,15 L70.436,8.028 L72.536,15 L74.132,15 L76.946,5.62 L75.364,5.62 L73.306,12.69 L71.15,5.62 L69.708,5.62 L67.552,12.69 L65.494,5.62 L63.926,5.62 L66.726,15 L68.322,15 Z M79.088,6.866 C79.62,6.866 80.012,6.488 80.012,5.97 C80.012,5.48 79.62,5.06 79.088,5.06 C78.542,5.06 78.15,5.48 78.15,5.97 C78.15,6.488 78.542,6.866 79.088,6.866 Z M79.816,15 L79.816,8.056 L78.36,8.056 L78.36,15 L79.816,15 Z M85.024,15.196 C85.612,15.196 86.088,15.056 86.746,14.664 L86.298,13.446 C85.934,13.684 85.486,13.824 85.122,13.824 C84.436,13.824 83.974,13.404 83.974,12.536 L83.974,9.26 L86.354,9.26 L86.354,8.056 L83.974,8.056 L83.974,5.9 L82.518,5.9 L82.518,8.056 L81.02,8.056 L81.02,9.26 L82.518,9.26 L82.518,12.634 C82.518,14.356 83.526,15.196 85.024,15.196 Z M89.378,15 L89.378,11.794 C89.378,10.044 90.204,9.204 91.45,9.204 C92.444,9.204 93.102,9.96 93.102,11.094 L93.102,15 L94.572,15 L94.572,10.8 C94.572,9.064 93.452,7.86 91.786,7.86 C90.75,7.86 89.938,8.238 89.378,8.91 L89.378,4.92 L87.922,4.92 L87.922,15 L89.378,15 Z M104.022,15.196 C106.402,15.196 107.984,13.446 107.984,10.856 L107.984,5.62 L106.486,5.62 L106.486,10.856 C106.486,12.606 105.492,13.754 104.022,13.754 C102.482,13.754 101.474,12.606 101.474,10.856 L101.474,5.62 L99.976,5.62 L99.976,10.856 C99.976,13.446 101.586,15.196 104.022,15.196 Z M112.576,15.196 C114.312,15.196 115.502,14.412 115.502,12.956 C115.502,11.976 114.816,11.318 113.696,11.08 L112.044,10.716 C111.428,10.576 111.204,10.324 111.204,9.932 C111.204,9.442 111.582,9.022 112.436,9.022 C113.332,9.022 113.906,9.484 114.018,10.156 L115.404,9.862 C115.152,8.7 114.074,7.86 112.478,7.86 C110.812,7.86 109.734,8.77 109.734,10.058 C109.734,11.038 110.42,11.682 111.624,11.948 L113.136,12.256 C113.78,12.396 114.074,12.662 114.074,13.082 C114.074,13.628 113.542,14.006 112.702,14.006 C111.792,14.006 111.064,13.656 110.966,12.83 L109.51,13.138 C109.692,14.538 111.022,15.196 112.576,15.196 Z" id="ChatWithUs" fill="#FFFFFF"></path>
                    </g>
                </g>
            </g>
        </g>
    </g>
</svg>