<?xml version="1.0" encoding="UTF-8"?>
<svg width="48px" height="48px" viewBox="0 0 48 48" version="1.1" xmlns="http://www.w3.org/2000/svg" xmlns:xlink="http://www.w3.org/1999/xlink">
    <title>1053CDCC-B59B-438F-83D7-F57E2230B4DD</title>
    <g id="Web" stroke="none" stroke-width="1" fill="none" fill-rule="evenodd">
        <g id="home" transform="translate(-34.000000, -2316.000000)" fill-rule="nonzero">
            <g id="Group-23" transform="translate(0.000000, 2294.000000)">
                <g id="Group-16" transform="translate(24.000000, 22.000000)">
                    <g id="icons/easyreturns" transform="translate(10.000000, 0.000000)">
                        <g id="delivery-truck" transform="translate(0.653061, 5.142857)">
                            <g id="Group" transform="translate(11.362044, 22.637108)">
                                <path d="M0.0501592686,1.89028982 L0.0501592686,9.42077948 L26.8345621,9.42077948 C27.5997911,9.42077948 28.2201772,8.80775198 28.2201772,8.05159954 C28.2201772,7.38681704 28.2201772,2.55379442 28.2201772,1.89028982 L14.1351221,0.0646252931 L0.0501592686,1.89028982 Z" id="Path" fill="#8B9BA9"></path>
                                <path d="M25.4488545,1.52517517 L25.4488545,6.6824196 L0.0501592686,6.6824196 L0.0501592686,9.42077948 L26.8345621,9.42077948 C27.5997911,9.42077948 28.2201772,8.80775198 28.2201772,8.05159954 C28.2201772,7.42159421 28.2201772,2.50824637 28.2201772,1.89028982 L25.4488545,1.52517517 Z" id="Path" fill="#6C7A88"></path>
                            </g>
                            <g id="Group">
                                <g transform="translate(0.738995, 0.000000)" id="Path">
                                    <path d="M40.0902804,0.0722014221 L14.830239,0.0722014221 C14.0649176,0.0722014221 13.4446238,0.68522892 13.4446238,1.44138136 L13.4446238,12.1202546 L4.20395638,12.1202546 C2.90775959,12.1202546 1.78467232,13.0082135 1.50025171,14.2578184 L0.451433417,18.8661129 C0.182162206,20.0499059 0.0461871718,21.2595307 0.0461871718,22.4728067 L0.0461871718,32.0578878 L13.4446238,32.0578878 C13.4446238,31.8350766 13.4446238,28.4486382 13.4446238,24.5273981 L38.8432267,24.5273981 L40.0902804,24.5273981 C40.8555094,24.5273981 41.4758955,23.9143706 41.4758955,23.1582182 L41.4758955,1.44138136 C41.4758955,0.685137641 40.8555094,0.0722014221 40.0902804,0.0722014221 Z" fill="#FF7E40"></path>
                                    <path d="M45.171054,15.9089581 L41.4758955,15.9089581 C41.4758955,15.1142861 41.4758955,14.2883054 41.4758955,13.4520103 L43.3234748,13.4520103 C43.7061817,13.4520103 44.0162824,13.1454966 44.0162824,12.7674204 C44.0162824,12.3893441 43.7061817,12.0828304 43.3234748,12.0828304 L41.4758955,12.0828304 C41.4758955,11.2550242 41.4758955,10.4295 41.4758955,9.62579136 L44.2472182,9.62579136 C44.6299251,9.62579136 44.9400258,9.31927761 44.9400258,8.94120139 C44.9400258,8.56312517 44.6299251,8.25661142 44.2472182,8.25661142 L41.4758955,8.25661142 C41.4758955,7.3831659 41.4758955,6.55481203 41.4758955,5.79966366 L45.171054,5.79966366 C45.5537609,5.79966366 45.8638616,5.49314991 45.8638616,5.11507369 C45.8638616,4.73699747 45.5537609,4.43048372 45.171054,4.43048372 L41.4758955,4.43048372 C41.4758955,3.36051524 41.4758955,2.54658341 41.4758955,2.12606261 C41.4758955,1.66556175 41.5226369,1.15540531 41.2890222,0.75688267 C41.0493108,0.34804554 40.6028656,0.0722927007 40.0902804,0.0722927007 L38.7046652,0.0722927007 L38.7046652,21.7892208 L13.4446238,21.7892208 C13.4446238,16.9727196 13.4446238,12.250418 13.4446238,12.1203459 L10.6733935,12.1203459 L10.6733935,24.5275807 L8.5949708,24.5275807 C6.5751134,24.5275807 4.73769533,25.309565 3.37258728,26.5813506 L0.0461871718,26.5813506 L0.0461871718,32.0580703 L13.4446238,32.0580703 C13.4446238,31.8723183 13.4446238,28.4703625 13.4446238,24.5275807 L21.9850014,24.5275807 L40.0902804,24.5275807 C40.6028656,24.5275807 41.0493108,24.2518278 41.2890222,23.8429907 C41.5226369,23.4444681 41.4758955,22.9343116 41.4758955,22.4738108 C41.4758955,22.191851 41.4758955,21.7192101 41.4758955,21.1044483 L44.2472182,21.1044483 C44.6299251,21.1044483 44.9400258,20.7979345 44.9400258,20.4198583 C44.9400258,20.0417821 44.6299251,19.7352683 44.2472182,19.7352683 L41.4758955,19.7352683 C41.4758955,19.0037611 41.4758955,18.173034 41.4758955,17.2782293 L45.171054,17.2782293 C45.5537609,17.2782293 45.8638616,16.9717156 45.8638616,16.5936393 C45.8638616,16.2155631 45.5537609,15.9089581 45.171054,15.9089581 Z" fill="#FF6344"></path>
                                </g>
                                <path d="M0.692807577,32.0578878 L5.76378954,32.0578878 L5.76378954,29.3195279 L0.692807577,29.3195279 C0.310193046,29.3195279 0,29.6260417 0,30.0041179 L0,31.3732978 C0,31.7514653 0.310193046,32.0578878 0.692807577,32.0578878 Z" id="Path" fill="#8B9BA9"></path>
                                <g transform="translate(3.417851, 14.787143)" id="Path">
                                    <polygon fill="#9DC6FB" points="7.99453757 0.0714711928 1.35984271 0.0714711928 0.0424921981 5.86009013 7.99453757 5.86009013"></polygon>
                                    <polygon fill="#80B4FB" points="5.38856496 3.12173026 0.66564952 3.12173026 0.0424921981 5.86009013 7.99453757 5.86009013 7.99453757 0.0714711928 5.38856496 0.0714711928"></polygon>
                                </g>
                            </g>
                            <g id="Group" transform="translate(27.989426, 27.201041)">
                                <ellipse id="Oval" fill="#4D5967" cx="4.89547071" cy="4.85684635" rx="4.84965304" ry="4.79212978"></ellipse>
                                <path d="M5.88701692,0.16585333 C5.31854521,1.20360044 5.47752145,2.52750617 6.36523889,3.40460283 L3.42588728,6.30908987 C2.53826221,5.43190193 1.19846473,5.27472007 0.148168447,5.83654024 C0.607084186,8.01052414 2.56117105,9.64897614 4.89556309,9.64897614 C7.56970796,9.64897614 9.74521613,7.49927236 9.74521613,4.85684635 C9.74521613,2.55014327 8.08709666,0.619325725 5.88701692,0.16585333 L5.88701692,0.16585333 Z" id="Path" fill="#35404A"></path>
                                <ellipse id="Oval" fill="#E9E3D5" cx="4.89547071" cy="4.85684635" rx="2.07842273" ry="2.05376991"></ellipse>
                            </g>
                            <g id="Group" transform="translate(4.433968, 27.201041)">
                                <ellipse id="Oval" fill="#4D5967" cx="4.89999706" cy="4.85684635" rx="4.84965304" ry="4.79212978"></ellipse>
                                <path d="M5.89145089,0.16585333 C5.32297918,1.20360044 5.48195542,2.52750617 6.36967286,3.40460283 L3.43032125,6.30908987 C2.54269618,5.43190193 1.2028987,5.27472007 0.152602416,5.83654024 C0.611518155,8.01052414 2.56560502,9.64897614 4.89999706,9.64897614 C7.57414193,9.64897614 9.7496501,7.49927236 9.7496501,4.85684635 C9.7496501,2.55014327 8.091623,0.619325725 5.89145089,0.16585333 L5.89145089,0.16585333 Z" id="Path" fill="#35404A"></path>
                                <ellipse id="Oval" fill="#E9E3D5" cx="4.89999706" cy="4.85684635" rx="2.07842273" ry="2.05376991"></ellipse>
                            </g>
                            <g id="Group" transform="translate(18.567243, 2.738360)">
                                <g>
                                    <ellipse id="Oval" fill="#4D5967" cx="9.63196518" cy="9.58818455" rx="9.63002532" ry="9.51580057"></ellipse>
                                    <path d="M16.4414323,2.85948666 L16.4370907,2.86377676 C15.4333511,3.8556107 15.1836632,5.36545106 15.802479,6.62774369 L6.65797319,15.6991997 C5.37018247,15.0860809 3.83510562,15.3162857 2.82434556,16.3150569 L2.82259044,16.3167912 C4.58352256,18.0568363 7.02331372,19.1261658 9.71574871,19.1035287 C14.9443213,19.0596237 19.2171889,14.8374379 19.2617134,9.67097429 C19.2845298,7.01047512 18.2024568,4.5995318 16.4414323,2.85948666 Z" id="Path" fill="#35404A"></path>
                                </g>
                                <g transform="translate(2.771230, 2.738360)">
                                    <ellipse id="Oval" fill="#F4EEE0" cx="6.86073487" cy="6.84982467" rx="6.85879501" ry="6.77744069"></ellipse>
                                    <path d="M11.7084481,2.05970302 C10.7478473,3.00890983 10.3864788,4.40200478 10.7750053,5.68830369 C11.190967,7.06542487 10.8496438,8.62026561 9.75112808,9.70584274 C8.65242764,10.7915112 7.07892307,11.1287858 5.68517898,10.7176667 C4.3835321,10.3337487 2.97362249,10.6907395 2.01311407,11.6399463 C3.32519925,12.9364684 5.16492667,13.7116068 7.18265946,13.6199631 C10.7010135,13.4601341 13.5503925,10.6446438 13.7121399,7.16802209 C13.8048838,5.17413098 13.0204409,3.35622514 11.7084481,2.05970302 L11.7084481,2.05970302 Z" id="Path" fill="#D3CDBF"></path>
                                </g>
                                <g transform="translate(8.221317, 4.837769)" fill="#4D5967">
                                    <path d="M3.99713022,5.4350054 L1.4106486,5.4350054 C1.02803407,5.4350054 0.717841024,5.12858293 0.717841024,4.75041543 L0.717841024,0.711334617 C0.717841024,0.333167118 1.02803407,0.0267446481 1.4106486,0.0267446481 C1.79326313,0.0267446481 2.10345618,0.333167118 2.10345618,0.711334617 L2.10345618,4.06582546 L3.99713022,4.06582546 C4.37974475,4.06582546 4.6899378,4.37224793 4.6899378,4.75041543 C4.6899378,5.12858293 4.37974475,5.4350054 3.99713022,5.4350054 Z" id="Path"></path>
                                    <ellipse id="Oval" cx="1.4106486" cy="4.75041543" rx="1.38561515" ry="1.36917994"></ellipse>
                                </g>
                            </g>
                        </g>
                    </g>
                </g>
            </g>
        </g>
    </g>
</svg>