<?xml version="1.0" encoding="UTF-8"?>
<svg width="48px" height="48px" viewBox="0 0 48 48" version="1.1" xmlns="http://www.w3.org/2000/svg" xmlns:xlink="http://www.w3.org/1999/xlink">
    <title>E42B061B-8C9C-4962-B778-907A75C31417</title>
    <g id="Web" stroke="none" stroke-width="1" fill="none" fill-rule="evenodd">
        <g id="home" transform="translate(-156.000000, -2316.000000)" fill-rule="nonzero">
            <g id="Group-23" transform="translate(0.000000, 2294.000000)">
                <g id="Group-4" transform="translate(144.000000, 22.000000)">
                    <g id="icons/protection" transform="translate(12.000000, 0.000000)">
                        <g id="guarantee" transform="translate(2.142857, 4.244505)">
                            <g id="Group" transform="translate(2.462777, 0.000000)">
                                <path d="M20.3278465,0.450160391 L22.6447916,3.05357919 L25.7816654,1.53492555 C26.4545312,1.20913538 27.2610026,1.54319345 27.5064886,2.24939465 L28.6508002,5.54133544 L32.13,5.33877206 C32.8763093,5.29532164 33.4935867,5.91251107 33.4500483,6.65882035 L33.2474849,10.1380201 L36.5394257,11.2823317 C37.2455389,11.5278178 37.579597,12.3342012 37.2538948,13.0071549 L35.7352412,16.1440287 L38.33866,18.4609738 C38.8970946,18.9580149 38.8970946,19.8308934 38.33866,20.3278465 L35.7352412,22.6447916 L37.2538948,25.7816654 C37.579685,26.4545312 37.2456269,27.2610026 36.5394257,27.5064007 L33.2474849,28.6507123 L33.4500483,32.129912 C33.4934987,32.8762213 32.8763093,33.4934987 32.13,33.4499603 L28.6508002,33.247397 L27.5064886,36.5393377 C27.2610026,37.245451 26.4546191,37.5795091 25.7816654,37.2538068 L22.6447916,35.7351532 L20.3278465,38.338572 C19.8308054,38.8970066 18.957927,38.8970066 18.4609738,38.338572 L16.1440287,35.7351532 L13.0071549,37.2538068 C12.3342892,37.579597 11.5278178,37.2455389 11.2823317,36.5393377 L10.1380201,33.247397 L6.65882035,33.4499603 C5.91251107,33.4934108 5.29523369,32.8762213 5.33877206,32.129912 L5.54133544,28.6507123 L2.24939465,27.5064007 C1.5432814,27.2609146 1.20922334,26.4545312 1.53492555,25.7816654 L3.05357919,22.6447916 L0.450160391,20.3278465 C-0.108274217,19.8308054 -0.108274217,18.957927 0.450160391,18.4609738 L3.05357919,16.1440287 L1.53492555,13.0071549 C1.20913538,12.3342892 1.54319345,11.5278178 2.24939465,11.2823317 L5.54133544,10.1380201 L5.33877206,6.65882035 C5.29532164,5.91251107 5.91251107,5.29523369 6.65882035,5.33877206 L10.1380201,5.54133544 L11.2823317,2.24939465 C11.5278178,1.5432814 12.3342012,1.20922334 13.0071549,1.53492555 L16.1440287,3.05357919 L18.4609738,0.450160391 C18.957927,-0.108274217 19.8308054,-0.108274217 20.3278465,0.450160391 Z" id="Path" fill="#FFCF5D"></path>
                                <g transform="translate(5.277379, 1.407301)" fill="#FFB545">
                                    <path d="M33.0611934,17.0535849 L30.4577746,14.7366398 L31.9764283,11.599766 C32.3022185,10.9269003 31.9681604,10.1204289 31.2620471,9.8749428 L27.9701064,8.73063122 L28.1726697,5.25143145 C28.2161201,4.50512216 27.5989307,3.88793274 26.8526214,3.93138316 L23.3734217,4.13394654 L22.2291101,0.842005749 C21.983624,0.135892498 21.1772406,-0.198165565 20.5042869,0.127624605 L19.3767749,0.67348146 L20.8808278,5.00040414 C21.2682754,6.11498649 22.3491705,6.83737166 23.5266416,6.768238 L25.4476074,6.65644553 L25.3357269,8.57741133 C25.267121,9.75549813 25.9889784,10.8357775 27.1035608,11.2232251 L28.9211779,11.8550152 L28.0826904,13.5869629 C27.5684978,14.6490354 27.8219879,15.9233464 28.7034861,16.7078287 L30.1408681,17.9870652 L28.7034861,19.2663018 C27.8219879,20.0507841 27.5684978,21.3250951 28.0826904,22.3871676 L28.9211779,24.1191153 L27.1035608,24.7509054 C25.9889784,25.138353 25.267121,26.2187203 25.3357269,27.3967192 L25.4476074,29.317685 L23.5266416,29.2058925 C22.3482029,29.13843 21.2682754,29.859232 20.8808278,30.9738143 L20.2490377,32.7912555 L18.51709,31.952856 C17.4549296,31.4386634 16.1806186,31.6921535 15.3961362,32.5736516 L14.1169876,34.0110336 L12.8377511,32.5735637 C12.0532688,31.6920655 10.7787818,31.4384875 9.71679736,31.952768 L7.98484967,32.7911676 L7.3530595,30.9737264 C6.96561196,29.859144 5.88550848,29.13843 4.70724576,29.2058045 L0.134133372,29.4720483 L0.0613055476,30.7225231 C0.0178551308,31.4688324 0.635044553,32.0861098 1.38135384,32.0426594 L4.86055361,31.840096 L6.00486519,35.1320368 C6.25035125,35.838238 7.05673469,36.1722081 7.72968842,35.8465059 L10.8665622,34.3279402 L13.1835073,36.931359 C13.6805484,37.4897936 14.5534268,37.4897936 15.05038,36.931359 L17.3673251,34.3279402 L20.5041989,35.8465059 C21.1770647,36.1722961 21.9835361,35.838238 22.2290221,35.1320368 L23.3733337,31.840096 L26.8525335,32.0426594 C27.5988428,32.0861098 28.2161201,31.4689204 28.1725818,30.7225231 L27.9700184,27.2433234 L31.2619592,26.0990118 C31.9680724,25.8535257 32.3021305,25.0471423 31.9763403,24.3741886 L30.4576867,21.2373147 L33.0611055,18.9203696 C33.6196281,18.4235045 33.6196281,17.550626 33.0611934,17.0535849 Z" id="Path"></path>
                                    <circle id="Oval" cx="14.1169876" cy="17.9870652" r="12.554092"></circle>
                                </g>
                            </g>
                            <g id="Group" transform="translate(13.457315, 12.137971)" fill="#3F5F94">
                                <path d="M3.09087266,4.66168439 C3.09087266,5.02608738 2.79560333,5.32126876 2.43120034,5.32126876 L0.672338028,5.32126876 C0.308110951,5.32126876 0.0127536648,5.02608738 0.0127536648,4.66168439 C0.0127536648,4.2972814 0.308022995,4.00210003 0.672338028,4.00210003 L0.892228801,4.00210003 L0.892228801,2.20568037 C0.660200057,2.28712791 0.391581489,2.23549756 0.20590572,2.04990974 C-0.0516303535,1.79228571 -0.0516303535,1.37475711 0.20590572,1.11713308 L1.08546881,0.237745904 C1.27404714,0.0489916643 1.55788215,-0.00721241736 1.80415982,0.0947289451 C2.05061339,0.19684622 2.21130957,0.437406726 2.21130957,0.704090256 L2.21130957,4.00210003 L2.43111239,4.00210003 C2.79560333,4.00210003 3.09087266,4.2972814 3.09087266,4.66168439 L3.09087266,4.66168439 Z" id="Path"></path>
                                <path d="M7.80146076,2.02334694 L7.80146076,3.34251567 C7.80146076,4.43352573 6.91389365,5.32126876 5.82261972,5.32126876 C4.7315217,5.32126876 3.84395458,4.43352573 3.84395458,3.34251567 L3.84395458,2.02334694 C3.84395458,0.932248922 4.7315217,0.0445938488 5.82261972,0.0445938488 C6.91380569,0.0445058925 7.80146076,0.932073009 7.80146076,2.02334694 L7.80146076,2.02334694 Z M6.48229204,2.02334694 C6.48229204,1.65955964 6.18640701,1.36376258 5.82261972,1.36376258 C5.45900834,1.36376258 5.16312331,1.65955964 5.16312331,2.02334694 L5.16312331,3.34251567 C5.16312331,3.70630296 5.45900834,4.00210003 5.82261972,4.00210003 C6.18640701,4.00210003 6.48229204,3.70630296 6.48229204,3.34251567 L6.48229204,2.02334694 Z" id="Shape"></path>
                                <path d="M12.5139839,2.02334694 L12.5139839,3.34251567 C12.5139839,4.43352573 11.6264168,5.32126876 10.5351429,5.32126876 C9.44404484,5.32126876 8.55647772,4.43352573 8.55647772,3.34251567 L8.55647772,2.02334694 C8.55647772,0.932248922 9.44404484,0.0445938488 10.5351429,0.0445938488 C11.6264168,0.0445058925 12.5139839,0.932073009 12.5139839,2.02334694 L12.5139839,2.02334694 Z M11.1948152,2.02334694 C11.1948152,1.65955964 10.8989302,1.36376258 10.5351429,1.36376258 C10.1715315,1.36376258 9.87564645,1.65955964 9.87564645,2.02334694 L9.87564645,3.34251567 C9.87564645,3.70630296 10.1715315,4.00210003 10.5351429,4.00210003 C10.8989302,4.00210003 11.1948152,3.70630296 11.1948152,3.34251567 L11.1948152,2.02334694 Z" id="Shape"></path>
                                <path d="M16.7036947,1.02372348 L14.5053147,4.98087784 C14.3847266,5.1977781 14.1598224,5.32012532 13.9280575,5.32012532 C13.8197833,5.32012532 13.7099258,5.29356252 13.6083363,5.23727048 C13.2899345,5.06030239 13.1752394,4.65878183 13.3520316,4.34037999 L15.5504996,0.383049727 C15.7273797,0.064559931 16.1288123,-0.0501350963 16.4473901,0.126745042 C16.7658799,0.303713136 16.8804869,0.705233688 16.7036947,1.02372348 L16.7036947,1.02372348 Z M13.2690009,0.703298649 C13.2690009,0.33889566 13.5641822,0.0437142857 13.9285852,0.0437142857 C14.2928123,0.0437142857 14.5882575,0.33889566 14.5882575,0.703298649 C14.5882575,1.06761368 14.2928123,1.36288301 13.9285852,1.36288301 C13.5642702,1.36288301 13.2690009,1.06752573 13.2690009,0.703298649 Z M15.4676447,4.66071687 C15.4676447,4.2964898 15.7629141,4.00122047 16.127317,4.00122047 C16.4915441,4.00122047 16.7869014,4.2964898 16.7869014,4.66071687 C16.7869014,5.02511986 16.4915441,5.32030124 16.127317,5.32030124 C15.7629141,5.32030124 15.4676447,5.02503191 15.4676447,4.66071687 Z" id="Shape"></path>
                            </g>
                            <g id="Group" transform="translate(0.000000, 19.350388)">
                                <path d="M42.3949411,7.96004599 L1.31934464,7.96004599 C0.590714573,7.96004599 0,7.36933142 0,6.64070135 L0,1.36332279 C0,0.634692728 0.590714573,0.0439781546 1.31934464,0.0439781546 L42.3949411,0.0439781546 C43.1235711,0.0439781546 43.7142857,0.634692728 43.7142857,1.36332279 L43.7142857,6.64070135 C43.7142857,7.36933142 43.1235711,7.96004599 42.3949411,7.96004599 Z" id="Path" fill="#3F5F94"></path>
                                <g transform="translate(0.791607, 1.319345)" fill="#FFCF5D">
                                    <path d="M5.30833918,2.68257948 C5.30833918,3.38746134 5.03382754,4.0498603 4.53546709,4.54822075 C4.03710664,5.0465812 3.37461972,5.32100489 2.67000172,5.32100489 C1.21520437,5.32100489 0.031576315,4.13746479 0.031576315,2.68257948 C0.031576315,1.22787008 1.21520437,0.0443299799 2.67000172,0.0443299799 L3.15402529,0.0443299799 C3.51842828,0.0443299799 3.81369761,0.339511354 3.81369761,0.703826387 C3.81369761,1.06831733 3.51851624,1.36349871 3.15402529,1.36349871 L2.67000172,1.36349871 C1.94251509,1.36349871 1.350833,1.95535671 1.350833,2.68257948 C1.350833,3.41006611 1.94260305,4.00183616 2.67000172,4.00183616 C3.02226674,4.00183616 3.3535102,3.86453636 3.60286634,3.61544409 C3.68554527,3.53258925 3.75608623,3.44093878 3.81308192,3.3422518 L3.50602644,3.3422518 C3.14171141,3.3422518 2.84635412,3.04707042 2.84635412,2.68257948 C2.84635412,2.31826444 3.14162346,2.02308307 3.50602644,2.02308307 L4.64884277,2.02308307 C5.01324576,2.02308307 5.30833918,2.3183524 5.30833918,2.68257948 L5.30833918,2.68257948 Z" id="Path"></path>
                                    <path d="M10.319474,0.703826387 L10.319474,3.09157632 C10.319474,4.32102961 9.31351768,5.32100489 8.07693993,5.32100489 C6.84018626,5.32100489 5.83431791,4.32102961 5.83431791,3.09157632 L5.83431791,0.703826387 C5.83431791,0.339511354 6.12958724,0.0443299799 6.49390227,0.0443299799 C6.85812935,0.0443299799 7.15357459,0.339511354 7.15357459,0.703826387 L7.15357459,3.09157632 C7.15357459,3.59345502 7.56776085,4.00183616 8.07702788,4.00183616 C8.58620696,4.00183616 9.00048117,3.59345502 9.00048117,3.09157632 L9.00048117,0.703826387 C9.00048117,0.339511354 9.2957505,0.0443299799 9.66015349,0.0443299799 C10.0241167,0.0443299799 10.319474,0.33959931 10.319474,0.703826387 L10.319474,0.703826387 Z" id="Path"></path>
                                    <path d="M14.4988939,5.27896177 C14.4225479,5.30763553 14.3443547,5.32109284 14.2673929,5.32109284 C14.0003576,5.32109284 13.7490664,5.15784593 13.6498517,4.89300949 L13.5629508,4.66142052 L12.0036614,4.66142052 L11.9168485,4.89300949 C11.7887841,5.23410405 11.4088129,5.40658638 11.0675424,5.27896177 C10.7266237,5.15116125 10.5536137,4.77101408 10.6815901,4.42983156 L12.1656769,0.472237425 C12.262165,0.214877264 12.5083547,0.0444179362 12.7832182,0.0444179362 C13.0580816,0.0444179362 13.3041834,0.214877264 13.4007594,0.472237425 L14.8847583,4.42983156 C15.0126467,4.77092613 14.8399005,5.1510733 14.4988939,5.27896177 L14.4988939,5.27896177 Z M13.0680207,3.3422518 L12.7831302,2.58230928 L12.4981518,3.3422518 L13.0680207,3.3422518 Z" id="Shape"></path>
                                    <path d="M19.3971808,4.19709917 C19.6535734,4.45569072 19.6518143,4.87339523 19.3932228,5.12987583 C19.2645427,5.25732452 19.0966341,5.32109284 18.9288135,5.32109284 C18.7590578,5.32109284 18.5893021,5.25609313 18.4604461,5.12591779 L17.3457758,4.00192412 L16.9940385,4.00192412 L16.9940385,4.66150848 C16.9940385,5.02591147 16.6985933,5.32109284 16.3343662,5.32109284 C15.9701391,5.32109284 15.6747818,5.02591147 15.6747818,4.66150848 L15.6747818,0.703914343 C15.6747818,0.33959931 15.9700512,0.0444179362 16.3343662,0.0444179362 L17.6207272,0.0444179362 C18.7056683,0.0444179362 19.5883978,0.932160966 19.5883978,2.02317103 C19.5883978,2.6668353 19.2809905,3.23951883 18.8061144,3.60110721 L19.3971808,4.19709917 Z M18.2692291,2.02308307 C18.2692291,1.65929577 17.9782696,1.36349871 17.6208152,1.36349871 L16.9941265,1.36349871 L16.9941265,2.68257948 L17.6208152,2.68257948 C17.9782696,2.68257948 18.2692291,2.38678241 18.2692291,2.02308307 L18.2692291,2.02308307 Z" id="Shape"></path>
                                    <path d="M24.1945818,5.27896177 C24.1182357,5.30763553 24.0400425,5.32109284 23.9630808,5.32109284 C23.6960454,5.32109284 23.4447542,5.15784593 23.3455395,4.89300949 L23.2586387,4.66142052 L21.6993492,4.66142052 L21.6125364,4.89300949 C21.484472,5.23410405 21.1045007,5.40658638 20.7632302,5.27896177 C20.4223116,5.15116125 20.2493015,4.77101408 20.377278,4.42983156 L21.8613648,0.472237425 C21.9578528,0.214877264 22.2040425,0.0444179362 22.478906,0.0444179362 C22.7537695,0.0444179362 22.9998712,0.214877264 23.0964473,0.472237425 L24.5804461,4.42983156 C24.7083346,4.77092613 24.5355884,5.1510733 24.1945818,5.27896177 L24.1945818,5.27896177 Z M22.7637085,3.3422518 L22.4788181,2.58230928 L22.1938396,3.3422518 L22.7637085,3.3422518 Z" id="Shape"></path>
                                    <path d="M29.5920207,0.703826387 L29.5920207,4.66142052 C29.5920207,4.94657488 29.4087197,5.19962518 29.1375504,5.28828514 C29.069912,5.31036217 29.0008663,5.32109284 28.9323484,5.32109284 C28.7261788,5.32109284 28.5270457,5.22425295 28.4003886,5.05159471 L26.6897264,2.71890543 L26.6897264,4.66159644 C26.6897264,5.02599943 26.3942811,5.3211808 26.030054,5.3211808 C25.665827,5.3211808 25.3704697,5.02599943 25.3704697,4.66159644 L25.3704697,0.7040023 C25.3704697,0.418935901 25.5536827,0.165885599 25.824852,0.0772256396 C26.0959333,-0.0116102328 26.3932256,0.0840862317 26.5619258,0.313916068 L28.2726761,2.64660535 L28.2726761,0.703826387 C28.2726761,0.339511354 28.5679454,0.0443299799 28.9321725,0.0443299799 C29.2965755,0.0443299799 29.5919327,0.33959931 29.5920207,0.703826387 L29.5920207,0.703826387 Z" id="Path"></path>
                                    <path d="M34.2772774,0.703826387 C34.2772774,1.06831733 33.982008,1.36349871 33.617693,1.36349871 L32.7821081,1.36349871 L32.7821081,4.66142052 C32.7821081,5.02582351 32.4868387,5.32100489 32.1225237,5.32100489 C31.7582966,5.32100489 31.4629394,5.02582351 31.4629394,4.66142052 L31.4629394,1.36349871 L30.6274424,1.36349871 C30.2631273,1.36349871 29.96777,1.06831733 29.96777,0.703826387 C29.96777,0.339511354 30.2630394,0.0443299799 30.6274424,0.0443299799 L33.6176051,0.0443299799 C33.9819201,0.0443299799 34.2772774,0.339511354 34.2772774,0.703826387 L34.2772774,0.703826387 Z" id="Path"></path>
                                    <path d="M38.0065369,4.66142052 C38.0065369,5.02582351 37.7113556,5.32100489 37.3469526,5.32100489 L35.3242213,5.32100489 C34.9599943,5.32100489 34.664637,5.02582351 34.664637,4.66142052 L34.664637,0.703826387 C34.664637,0.339511354 34.9599063,0.0443299799 35.3242213,0.0443299799 L37.3469526,0.0443299799 C37.7112676,0.0443299799 38.0065369,0.339511354 38.0065369,0.703826387 C38.0065369,1.06831733 37.7113556,1.36349871 37.3469526,1.36349871 L35.9838057,1.36349871 L35.9838057,2.02308307 L36.8193027,2.02308307 C37.1836177,2.02308307 37.4787991,2.31826444 37.4787991,2.68257948 C37.4787991,3.04707042 37.1836177,3.3422518 36.8193027,3.3422518 L35.9838057,3.3422518 L35.9838057,4.00183616 L37.3469526,4.00183616 C37.7113556,4.00183616 38.0065369,4.29701753 38.0065369,4.66142052 L38.0065369,4.66142052 Z" id="Path"></path>
                                    <path d="M42.0994958,4.66142052 C42.0994958,5.02582351 41.8043145,5.32100489 41.4399115,5.32100489 L39.4171802,5.32100489 C39.0529531,5.32100489 38.7575959,5.02582351 38.7575959,4.66142052 L38.7575959,0.703826387 C38.7575959,0.339511354 39.0528652,0.0443299799 39.4171802,0.0443299799 L41.4399115,0.0443299799 C41.8042265,0.0443299799 42.0994958,0.339511354 42.0994958,0.703826387 C42.0994958,1.06831733 41.8043145,1.36349871 41.4399115,1.36349871 L40.0767646,1.36349871 L40.0767646,2.02308307 L40.9122616,2.02308307 C41.2765766,2.02308307 41.571758,2.31826444 41.571758,2.68257948 C41.571758,3.04707042 41.2765766,3.3422518 40.9122616,3.3422518 L40.0767646,3.3422518 L40.0767646,4.00183616 L41.4399115,4.00183616 C41.8042265,4.00183616 42.0994958,4.29701753 42.0994958,4.66142052 L42.0994958,4.66142052 Z" id="Path"></path>
                                </g>
                            </g>
                        </g>
                    </g>
                </g>
            </g>
        </g>
    </g>
</svg>