<?xml version="1.0" encoding="UTF-8"?>
<svg width="48px" height="48px" viewBox="0 0 48 48" version="1.1" xmlns="http://www.w3.org/2000/svg" xmlns:xlink="http://www.w3.org/1999/xlink">
    <title>2527FCDC-9ED3-41C6-8BAD-BC1ED6726AE7</title>
    <g id="Web" stroke="none" stroke-width="1" fill="none" fill-rule="evenodd">
        <g id="home" transform="translate(-276.000000, -2316.000000)" fill-rule="nonzero">
            <g id="Group-23" transform="translate(0.000000, 2294.000000)">
                <g id="Group-12" transform="translate(264.000000, 22.000000)">
                    <g id="icons/support" transform="translate(12.000000, 0.000000)">
                        <g id="24-hours-support-(2)" transform="translate(5.142857, 4.693878)">
                            <path d="M13.0885579,9.82081336 L9.36597886,11.9613802 C8.77673965,12.3001888 8.57137692,13.0442891 8.90730879,13.6231403 L17.6118119,28.6238889 C17.9477438,29.2027401 18.6977572,29.3973952 19.2869965,29.0585867 L23.0095755,26.9180198 L27.3821236,34.4533138 L22.2368683,37.4119755 C18.8976862,39.3321569 14.6475567,38.229431 12.743996,34.949061 L0.971197911,14.6605017 C-0.932362779,11.3801318 0.231572449,7.16420272 3.57075447,5.24402123 L8.71600982,2.28535957 L13.0885579,9.82081336 Z" id="Path" fill="#FF624B"></path>
                            <ellipse id="Oval" fill="#FF4B34" cx="20.5014333" cy="35.4852415" rx="1.4613516" ry="1.46039271"></ellipse>
                            <g id="Group" transform="translate(0.000000, 2.237415)" fill="#FF4B34">
                                <path d="M22.1582391,26.386474 C22.494171,26.9653252 23.2441845,27.1599803 23.8334237,26.8211717 L24.1468216,26.6409 L23.0092559,24.6806049 L21.6287708,25.4744077 L22.1582391,26.386474 Z" id="Path"></path>
                                <path d="M17.290583,32.7114862 L5.51778494,12.4230868 C3.61422425,9.14271681 4.77815948,4.92678776 8.1173415,3.00660627 L9.85341569,2.00823975 L8.71600982,0.0479446064 L3.57075447,3.00660627 C0.231572449,4.92678776 -0.932362779,9.14271681 0.971197911,12.4230868 L12.7438362,32.7114862 C14.4172628,35.5953543 17.9039544,36.795248 20.9912674,35.7388685 C19.4805328,35.2218658 18.1473532,34.1881801 17.290583,32.7114862 Z" id="Path"></path>
                            </g>
                            <path d="M19.9089978,28.9403233 L24.1194931,36.2088855 C24.4776394,36.8272111 25.3638155,36.9855881 26.0984867,36.5627167 L29.5829409,34.5568741 C30.4646422,34.0493006 30.830939,33.036231 30.4011955,32.2942084 L26.4500805,25.4734488 C26.0201772,24.7314261 24.9569256,24.5412459 24.0752243,25.0489793 L20.5907701,27.0548218 C19.8560989,27.4776932 19.5508516,28.3219977 19.9089978,28.9403233 Z" id="Path" fill="#FF624B"></path>
                            <path d="M29.2727393,33.5196725 C29.2318265,33.5196725 29.1901147,33.5143986 29.1488824,33.5032115 C28.9433598,33.4483948 28.8047999,33.2679633 28.7936128,33.0664362 L26.2664526,28.7037966 C26.1336461,28.4746214 26.2117958,28.1812004 26.440971,28.0485536 C26.670306,27.9155873 26.963727,27.9938968 27.0962139,28.223072 L29.6919349,32.7041347 C29.7668883,32.8358226 29.7812717,32.9935603 29.7357243,33.1636039 C29.6783506,33.3780761 29.4844946,33.5195127 29.2727393,33.5196725 Z" id="Shape" fill="#FF9079"></path>
                            <path d="M5.58634572,4.1758154 L9.79684106,11.4443776 C10.1549873,12.0627032 11.0411634,12.2210802 11.7758346,11.7982087 L15.2602888,9.79236623 C16.1419901,9.28479266 16.5082869,8.27172313 16.0785434,7.52970044 L12.1274284,0.708940914 C11.6975251,-0.0330817784 10.6342735,-0.223262051 9.75257221,0.284471331 L6.26811803,2.29031385 C5.53328703,2.71334509 5.2280397,3.5574898 5.58634572,4.1758154 Z" id="Path" fill="#FF624B"></path>
                            <path d="M24.4555848,28.9403233 C24.0974386,28.3219977 24.402686,27.4776932 25.137517,27.054662 L26.8088659,26.0925735 L26.4502403,25.473289 C26.020337,24.7312663 24.9570854,24.5410861 24.0753841,25.0486596 L20.5909299,27.0545021 C19.8560989,27.4775334 19.5508516,28.3216781 19.9089978,28.9401635 L24.1194931,36.2087257 C24.4776394,36.8270513 25.3638155,36.9854283 26.0984867,36.5625569 L28.1776845,35.3655398 L24.4555848,28.9403233 Z" id="Path" fill="#FF4B34"></path>
                            <path d="M10.1329328,4.1758154 C9.77478654,3.5574898 10.0800339,2.71318528 10.8147051,2.29015403 L12.486054,1.3280656 L12.1274284,0.708781098 C11.6975251,-0.0332415938 10.6342735,-0.223421866 9.75257221,0.284151701 L6.26811803,2.29031385 C5.53328703,2.71334509 5.2280397,3.5574898 5.58634572,4.17597522 L9.79668124,11.4445374 C10.1548275,12.062863 11.0410036,12.22124 11.7756748,11.7983686 L13.8548725,10.6015114 L10.1329328,4.1758154 Z" id="Path" fill="#FF4B34"></path>
                            <ellipse id="Oval" fill="#FF4B34" cx="12.3088188" cy="4.33323353" rx="1.4613516" ry="1.46039271"></ellipse>
                            <path d="M32.7146826,6.46277313 C28.5925651,2.30997114 22.5346043,1.21891171 17.3955817,3.19982303 C16.7715028,3.44034514 16.4846342,4.16207128 16.7739,4.76505462 L16.7863656,4.7909447 C17.0468646,5.33399728 17.681012,5.57627736 18.2429227,5.35956774 C22.5453119,3.70100398 27.609381,4.6170656 31.0658675,8.09928236 C35.6257192,12.6930149 35.6987549,20.0504344 31.3067093,24.7338234 L30.7229038,24.1457029 C30.5335226,23.9550431 30.2076591,24.0688317 30.1782531,24.3358831 L29.845038,27.3629458 C29.8228237,27.565272 29.9928672,27.7365941 30.1953533,27.7158181 L33.2248132,27.4049772 C33.4921843,27.377489 33.60837,27.0525844 33.4189888,26.8619246 L32.9441774,26.3835973 C38.2374218,20.8033245 38.1695002,11.9581839 32.7146826,6.46277313 Z" id="Path" fill="#FFA730"></path>
                            <path d="M23.0752596,14.3282456 C23.0752596,12.5662813 21.8814389,11.4277568 20.0336538,11.4277568 C18.1837911,11.4277568 17.0048332,12.6036781 16.9570484,14.496691 L16.9570484,14.496691 C16.9525736,14.6729673 17.0943298,14.8182395 17.2706061,14.8182395 L18.563832,14.8182395 C18.732597,14.8182395 18.8709971,14.6847937 18.8772299,14.5161885 L18.8772299,14.5161885 C18.895289,14.0229983 19.0710859,13.1956342 20.0454801,13.1956342 C20.7883019,13.1956342 21.1194393,13.5630497 21.1194393,14.3872175 C21.1194393,15.6913108 19.5650752,17.0225727 17.9194565,18.4318245 C17.6400992,18.6710681 17.3567466,18.9136678 17.0754716,19.1607423 L16.9687149,19.2543941 L16.9687149,20.3723025 C16.9687149,20.5455424 17.1091926,20.6858603 17.2822726,20.6858603 L22.9967903,20.6858603 C23.1700301,20.6858603 23.310348,20.5453826 23.310348,20.3723025 L23.310348,19.255353 C23.310348,19.0821132 23.1698703,18.9417953 22.9967903,18.9417953 L20.9080036,18.9417953 C20.6217743,18.9417953 20.4860911,18.5910006 20.6964081,18.3968249 C21.8857539,17.2988934 23.0752596,15.9751429 23.0752596,14.3282456 Z" id="Path" fill="#FFDF74"></path>
                            <path d="M29.8953799,16.9110216 L29.8953799,12.0235484 C29.8953799,11.8503086 29.7549022,11.7099907 29.5818222,11.7099907 L27.9592169,11.7099907 C27.8566154,11.7099907 27.7605664,11.7601727 27.7019141,11.8442356 L23.7511188,17.5119273 C23.714521,17.5645066 23.6947039,17.6271542 23.6947039,17.6912401 L23.6947039,18.7023919 C23.6947039,18.8756317 23.8351816,19.0159496 24.0082617,19.0159496 L27.6375086,19.0159496 C27.8107484,19.0159496 27.9510663,19.1564273 27.9510663,19.3295073 L27.9510663,20.489607 C27.9510663,20.6628468 28.091544,20.8031647 28.264624,20.8031647 L29.5815025,20.8031647 C29.7547424,20.8031647 29.8950603,20.662687 29.8950603,20.489607 L29.8950603,19.3295073 C29.8950603,19.1562675 30.0355379,19.0159496 30.208618,19.0159496 L30.6749592,19.0159496 C30.848199,19.0159496 30.9885169,18.8754719 30.9885169,18.7023919 L30.9885169,17.5382968 C30.9885169,17.365057 30.8480392,17.2247391 30.6749592,17.2247391 L30.208618,17.2247391 C30.0358576,17.2247391 29.8953799,17.0842614 29.8953799,16.9110216 Z M27.6964804,17.2247391 L26.7224058,17.2247391 C26.4716555,17.2247391 26.322388,16.9452221 26.461747,16.7368228 L27.4358216,15.2797862 C27.6081025,15.0220041 28.010198,15.1439432 28.010198,15.4541448 L28.010198,16.9111814 C28.0100381,17.0842614 27.8697203,17.2247391 27.6964804,17.2247391 Z" id="Shape" fill="#FFDF74"></path>
                            <g id="Group" transform="translate(16.940428, 11.426798)" fill="#FFC34C">
                                <path d="M0.330178523,3.39144164 L1.60870136,3.39144164 C1.43242502,3.39144164 1.2906688,3.24616948 1.29514363,3.06989315 C1.33717507,1.40285918 2.25723207,0.292941545 3.7396793,0.0514605442 C3.53447638,0.0183787658 3.31904529,0.000958892128 3.09338601,0.000958892128 C1.24352328,0.000958892128 0.0645654033,1.17688027 0.0167806122,3.06989315 C0.012145967,3.24616948 0.153742371,3.39144164 0.330178523,3.39144164 Z" id="Path"></path>
                                <path d="M1.30681016,8.94534485 L1.30681016,7.82743644 L1.41356681,7.73378465 C1.69484184,7.48686992 1.97803465,7.24427021 2.2575517,7.00486681 C3.90317041,5.59561501 5.45753455,4.26435311 5.45753455,2.96025982 C5.45753455,2.13625185 5.12639713,1.76867653 4.38357536,1.76867653 C4.12387541,1.76867653 3.92218844,1.82860729 3.76381142,1.92417687 C4.04700423,2.10317007 4.17901171,2.4407001 4.17901171,2.9601 C4.17901171,4.26419329 2.62464757,5.5954552 0.979028863,7.004707 C0.699671623,7.2441104 0.416318999,7.48671011 0.135043975,7.73362483 L0.0282873178,7.82727663 L0.0282873178,8.94518503 C0.0282873178,9.11826506 0.168765015,9.2587429 0.341845044,9.2587429 L1.62036788,9.2587429 C1.44712804,9.25890258 1.30681016,9.11842488 1.30681016,8.94534485 Z" id="Path"></path>
                            </g>
                            <g id="Group" transform="translate(23.652672, 11.666521)" fill="#FFC34C">
                                <path d="M1.32055428,7.03587099 L1.32055428,6.02455943 C1.32055428,5.96047347 1.34021156,5.89782585 1.3769691,5.8452466 L5.32776448,0.177554859 C5.38641672,0.0934919825 5.48246574,0.0433099611 5.5850672,0.0433099611 L4.30654436,0.0433099611 C4.20394291,0.0433099611 4.10789388,0.0933321672 4.04924164,0.177554859 L0.0984462585,5.8452466 C0.0618485423,5.89782585 0.0420314383,5.96047347 0.0420314383,6.02455943 L0.0420314383,7.03587099 C0.0420314383,7.20895102 0.182509135,7.34942872 0.355589164,7.34942872 L1.634112,7.34942872 C1.46103197,7.34942872 1.32055428,7.20895102 1.32055428,7.03587099 Z" id="Path"></path>
                                <path d="M5.57723625,8.8230861 L5.57723625,7.66314626 C5.57723625,7.48990641 5.43675855,7.34958853 5.26367852,7.34958853 L3.98515569,7.34958853 C4.15839553,7.34958853 4.29871341,7.48990641 4.29871341,7.66314626 L4.29871341,8.8230861 C4.29871341,8.99632595 4.43919111,9.13664383 4.61227114,9.13664383 L5.89079397,9.13664383 C5.71755413,9.13664383 5.57723625,8.99632595 5.57723625,8.8230861 Z" id="Path"></path>
                            </g>
                            <path d="M32.7146826,6.46277313 C28.5925651,2.30997114 22.5346043,1.21891171 17.3955817,3.19982303 C16.7715028,3.44034514 16.4846342,4.16207128 16.7739,4.76505462 L16.7863656,4.7909447 C17.0468646,5.33399728 17.681012,5.57627736 18.2429227,5.35956774 C22.5453119,3.70100398 27.609381,4.6170656 31.0658675,8.09928236 C35.6257192,12.6930149 35.6987549,20.0504344 31.3067093,24.7338234 L30.7229038,24.1457029 C30.5335226,23.9550431 30.2076591,24.0688317 30.1782531,24.3358831 L29.845038,27.3629458 C29.8228237,27.565272 29.9928672,27.7365941 30.1953533,27.7158181 L33.2248132,27.4049772 C33.4921843,27.377489 33.60837,27.0525844 33.4189888,26.8619246 L32.9441774,26.3835973 C38.2374218,20.8033245 38.1695002,11.9581839 32.7146826,6.46277313 Z" id="Path" fill="#FFA730"></path>
                        </g>
                    </g>
                </g>
            </g>
        </g>
    </g>
</svg>