<?xml version="1.0" encoding="UTF-8"?>
<svg width="14px" height="14px" viewBox="0 0 14 14" version="1.1" xmlns="http://www.w3.org/2000/svg" xmlns:xlink="http://www.w3.org/1999/xlink">
    <title>480852C6-2AA8-4A18-8C03-4BFA2F62BF9A</title>
    <g id="Web" stroke="none" stroke-width="1" fill="none" fill-rule="evenodd">
        <g id="home" transform="translate(-82.000000, -165.000000)" fill="#17B31B" fill-rule="nonzero">
            <g id="Group-11" transform="translate(82.000000, 136.000000)">
                <g id="Group-20" transform="translate(0.000000, 28.000000)">
                    <g id="noun_tick_684585" transform="translate(0.000000, 1.000000)">
                        <path d="M7,0.0954545455 C3.18181818,0.0954545455 0.0954545455,3.18181818 0.0954545455,7 C0.0954545455,10.8181818 3.18181818,13.9045455 7,13.9045455 C10.8181818,13.9045455 13.9045455,10.8181818 13.9045455,7 C13.9045455,3.18181818 10.8181818,0.0954545455 7,0.0954545455 Z M10.3409091,5.56818182 L6.25227273,9.64090909 C6.125,9.76818182 5.96590909,9.83181818 5.80681818,9.83181818 C5.64772727,9.83181818 5.47272727,9.76818182 5.36136364,9.64090909 L3.34090909,7.63636364 C3.08636364,7.38181818 3.08636364,6.98409091 3.34090909,6.72954545 C3.59545455,6.475 3.99318182,6.475 4.24772727,6.72954545 L5.80681818,8.28863636 L9.43409091,4.66136364 C9.68863636,4.40681818 10.0863636,4.40681818 10.3409091,4.66136364 C10.5795455,4.91590909 10.5795455,5.32954545 10.3409091,5.56818182 Z" id="Shape"></path>
                    </g>
                </g>
            </g>
        </g>
    </g>
</svg>