<?xml version="1.0" encoding="UTF-8"?>
<svg width="28px" height="28px" viewBox="0 0 28 28" version="1.1" xmlns="http://www.w3.org/2000/svg" xmlns:xlink="http://www.w3.org/1999/xlink">
    <title>8ECCE5F9-91AC-427D-9A20-5FB39860AC85</title>
    <g id="Web" stroke="none" stroke-width="1" fill="none" fill-rule="evenodd">
        <g id="W-Landing" transform="translate(-1188.000000, -74.000000)" fill="#4D4D4D" fill-rule="nonzero">
            <g id="navicons/orders/inactive" transform="translate(1188.000000, 74.000000)">
                <path d="M3.84632285,20.5153853 C4.78556076,20.5153853 5.54696352,21.2767881 5.54696352,22.216026 C5.54696352,23.1552639 4.78556076,23.9166667 3.84632285,23.9166667 C2.90708495,23.9166667 2.14568218,23.1552639 2.14568218,22.216026 C2.14568218,21.2767881 2.90708495,20.5153853 3.84632285,20.5153853 Z M24.6493007,21.0110088 C25.3148133,21.0110088 25.8543178,21.5505134 25.8543178,22.216026 C25.8543178,22.8371711 25.3843494,23.3485492 24.7806006,23.4139723 L24.6493007,23.4210431 L10.4081889,23.4210431 C9.74267635,23.4210431 9.2031718,22.8815386 9.2031718,22.216026 C9.2031718,21.5948809 9.67314021,21.0835028 10.2768891,21.0180797 L10.4081889,21.0110088 L24.6493007,21.0110088 Z M3.84632285,12.2993593 C4.78556076,12.2993593 5.54696352,13.0607621 5.54696352,14 C5.54696352,14.9392379 4.78556076,15.7006407 3.84632285,15.7006407 C2.90708495,15.7006407 2.14568218,14.9392379 2.14568218,14 C2.14568218,13.0607621 2.90708495,12.2993593 3.84632285,12.2993593 Z M24.6493007,12.7949829 C25.3148133,12.7949829 25.8543178,13.3344874 25.8543178,14 C25.8543178,14.6211451 25.3843494,15.1325232 24.7806006,15.1979463 L24.6493007,15.2050171 L10.4081889,15.2050171 C9.74267635,15.2050171 9.2031718,14.6655126 9.2031718,14 C9.2031718,13.3788549 9.67314021,12.8674768 10.2768891,12.8020537 L10.4081889,12.7949829 L24.6493007,12.7949829 Z M3.84632285,4.08333333 C4.78556076,4.08333333 5.54696352,4.8447361 5.54696352,5.783974 C5.54696352,6.72321191 4.78556076,7.48461468 3.84632285,7.48461468 C2.90708495,7.48461468 2.14568218,6.72321191 2.14568218,5.783974 C2.14568218,4.8447361 2.90708495,4.08333333 3.84632285,4.08333333 Z M24.6493007,4.57895686 C25.3148133,4.57895686 25.8543178,5.11846141 25.8543178,5.783974 C25.8543178,6.40511909 25.3843494,6.91649717 24.7806006,6.98192027 L24.6493007,6.98899115 L10.4081889,6.98899115 C9.74267635,6.98899115 9.2031718,6.4494866 9.2031718,5.783974 C9.2031718,5.16282892 9.67314021,4.65145083 10.2768891,4.58602774 L10.4081889,4.57895686 L24.6493007,4.57895686 Z" id="Combined-Shape"></path>
            </g>
        </g>
    </g>
</svg>